<svg width="78" height="78" viewBox="0 0 78 78" fill="none" xmlns="http://www.w3.org/2000/svg"><g clip-path="url(#a)" fill="#fff"><path d="M40.464 12.49a1.524 1.524 0 1 1-3.047 0 1.524 1.524 0 0 1 3.047 0z"/><path d="M57.222 29.248c0-7.748-4.846-14.423-11.741-17.073a1.525 1.525 0 0 0-1.094 2.845c5.855 2.25 9.788 7.967 9.788 14.228 0 8.401-6.833 15.235-15.234 15.235-8.4 0-15.235-6.834-15.235-15.235 0-6.261 3.933-11.979 9.788-14.228a1.524 1.524 0 0 0-1.093-2.845C25.506 14.825 20.66 21.5 20.66 29.248c0 10.08 8.2 18.282 18.282 18.282 10.08 0 18.281-8.201 18.281-18.282z"/><path d="M60.265 46.305l1.207-.325a4.575 4.575 0 0 0 3.225-5.586 951.88 951.88 0 0 1-.996-3.749 1.5 1.5 0 0 1 .399-1.455l2.712-2.712a4.573 4.573 0 0 0 .006-6.455c-.917-.92-1.953-1.96-2.736-2.75a1.496 1.496 0 0 1-.381-1.459l.991-3.702a4.568 4.568 0 0 0-3.231-5.598l-3.704-.992a1.499 1.499 0 0 1-1.073-1.06c-.292-1.073-.674-2.491-1.012-3.745a4.575 4.575 0 0 0-5.585-3.225c-1.254.334-2.675.713-3.749.996a1.496 1.496 0 0 1-1.448-.391l-2.719-2.758a4.573 4.573 0 0 0-6.456-.008c-.893.89-2.005 2.037-2.75 2.776-.382.38-.928.524-1.458.381l-3.703-.991a4.562 4.562 0 0 0-5.595 3.221c-.338 1.255-.722 2.674-1.012 3.744a1.5 1.5 0 0 1-1.075 1.06l-3.701.992a4.568 4.568 0 0 0-3.232 5.598l.992 3.703c.142.53 0 1.075-.382 1.46-.782.788-1.82 1.829-2.734 2.747a4.572 4.572 0 0 0 .005 6.456l2.712 2.712c.387.388.537.932.4 1.455l-.996 3.747a4.562 4.562 0 0 0 3.233 5.589l1.198.321L5.078 68.1a1.524 1.524 0 0 0 1.55 2.265l8.44-1.285 3.105 7.95a1.525 1.525 0 0 0 2.74.206L33.66 55.08c.654.65 1.388 1.38 2.056 2.047a4.569 4.569 0 0 0 6.448.001l2.057-2.048L56.97 77.236a1.523 1.523 0 0 0 2.74-.205l3.105-7.95 8.44 1.284a1.522 1.522 0 1 0 1.55-2.266L60.264 46.306zm-40.41 26.659l-2.394-6.128a1.524 1.524 0 0 0-1.648-.952l-6.516.993 11.316-19.672c.282.197.49.485.583.828.291 1.071.675 2.49 1.012 3.743A4.562 4.562 0 0 0 27.803 55l2.822-.756-10.77 18.72zM40.012 54.97c-.59.59-1.552.59-2.144-.001-.921-.918-1.965-1.958-2.755-2.741a4.56 4.56 0 0 0-4.394-1.163l-3.705.992a1.518 1.518 0 0 1-1.863-1.072c-.338-1.256-.723-2.677-1.015-3.752a4.575 4.575 0 0 0-3.225-3.202l-3.704-.994a1.517 1.517 0 0 1-1.077-1.86c.423-1.588.767-2.881.997-3.756a4.576 4.576 0 0 0-1.191-4.386l-2.712-2.711a1.522 1.522 0 0 1-.003-2.15 2884.4 2884.4 0 0 0 2.74-2.753 4.573 4.573 0 0 0 1.163-4.394l-.992-3.703a1.523 1.523 0 0 1 1.077-1.866l3.701-.992a4.576 4.576 0 0 0 3.227-3.204l1.014-3.752a1.518 1.518 0 0 1 1.864-1.07l3.704.992a4.57 4.57 0 0 0 4.394-1.163c.778-.773 1.865-1.894 2.754-2.782a1.52 1.52 0 0 1 2.141-.003l2.72 2.76a4.578 4.578 0 0 0 4.386 1.19 961.7 961.7 0 0 0 3.758-.999 1.523 1.523 0 0 1 1.859 1.075c.338 1.256.72 2.678 1.014 3.754a4.575 4.575 0 0 0 3.225 3.202l3.702.992a1.523 1.523 0 0 1 1.077 1.867l-.992 3.702a4.57 4.57 0 0 0 1.163 4.393c.784.79 1.822 1.833 2.741 2.755.591.592.59 1.555-.004 2.149l-2.712 2.711a4.578 4.578 0 0 0-1.19 4.386c.283 1.078.663 2.503.998 3.758a1.523 1.523 0 0 1-1.072 1.859c-1.905.51-3.683.995-3.746 1.013a4.502 4.502 0 0 0-3.198 3.2c-.285 1.05-.72 2.67-1.007 3.734a1.518 1.518 0 0 1-1.864 1.072l-3.702-.991a4.56 4.56 0 0 0-4.395 1.161c-.79.784-1.835 1.824-2.757 2.743zm22.056 10.914a1.525 1.525 0 0 0-1.648.952l-2.394 6.128-10.77-18.72 2.821.756a4.564 4.564 0 0 0 5.596-3.224c.314-1.168.712-2.648 1.005-3.728.095-.351.306-.643.592-.84l11.315 19.669-6.517-.993z"/><path d="M28.798 25.953a1.524 1.524 0 0 0 .386 1.562l3.773 3.677-.892 5.193a1.524 1.524 0 0 0 2.211 1.607l4.664-2.453 4.665 2.453a1.525 1.525 0 0 0 2.21-1.607l-.89-5.193 3.772-3.677a1.523 1.523 0 0 0-.844-2.6l-5.215-.757-2.331-4.725a1.524 1.524 0 0 0-2.733 0l-2.331 4.725-5.215.758a1.523 1.523 0 0 0-1.23 1.037zm7.676 1.105a1.523 1.523 0 0 0 1.147-.834l1.32-2.674 1.319 2.674c.222.45.65.762 1.147.834l2.952.43-2.135 2.08c-.36.351-.523.855-.438 1.35l.504 2.94-2.64-1.388a1.522 1.522 0 0 0-1.418 0l-2.641 1.388.504-2.94a1.523 1.523 0 0 0-.438-1.35l-2.135-2.08 2.952-.43z"/></g><defs><clipPath id="a"><path fill="#fff" d="M0 0h78v78H0z"/></clipPath></defs></svg>