<svg width="64" height="64" viewBox="0 0 64 64" fill="none" xmlns="http://www.w3.org/2000/svg"><g clip-path="url(#a)" fill="#68A7CF"><path d="M61.466 14.116L32.407.176a.943.943 0 0 0-.815 0L2.534 14.116a.931.931 0 0 0-.53.84v33.856c0 .357.206.683.53.839l29.058 13.94a.942.942 0 0 0 .815 0l29.059-13.94a.931.931 0 0 0 .53-.84V14.957a.931.931 0 0 0-.53-.84zM32 2.05l26.902 12.906-7.799 3.742a.931.931 0 0 0-.158-.1L24.225 5.78 32 2.049zm-9.892 4.783L48.971 19.72l-5.502 2.64L16.617 9.476l5.491-2.645zM49.6 21.487v9.757l-5.14 2.466v-9.757l5.14-2.466zm10.52 26.74l-27.183 13.04V29.482l6.484-3.11a.929.929 0 0 0 .437-1.245.94.94 0 0 0-1.252-.434L32 27.862l-2.6-1.248a.94.94 0 0 0-1.252.434.93.93 0 0 0 .437 1.244l2.477 1.189v31.787L3.88 48.227V16.44l20.7 9.93a.938.938 0 0 0 1.252-.433.929.929 0 0 0-.437-1.245L5.098 14.955l9.313-4.468 28.161 13.511.014.016v11.18a.93.93 0 0 0 .937.932c.14 0 .278-.03.408-.093l7.014-3.365a.931.931 0 0 0 .53-.839V20.588l8.646-4.148v31.787z"/><path d="M11.616 44.613L7.35 42.568a.94.94 0 0 0-1.252.434.93.93 0 0 0 .437 1.244L10.8 46.29a.938.938 0 0 0 1.252-.434.929.929 0 0 0-.436-1.244zm3.924-2.538l-8.183-3.926a.94.94 0 0 0-1.251.434.93.93 0 0 0 .436 1.244l8.183 3.926a.94.94 0 0 0 1.252-.434.93.93 0 0 0-.437-1.244z"/></g><defs><clipPath id="a"><path fill="#fff" transform="translate(0 .083)" d="M0 0h64v63.601H0z"/></clipPath></defs></svg>