<svg width="44" height="43" viewBox="0 0 44 43" fill="none" xmlns="http://www.w3.org/2000/svg"><g clip-path="url(#a)" fill="#fff"><path d="M9.457 24.986c4.852 0 8.798 3.946 8.798 8.797 0 4.852-3.946 8.798-8.798 8.798-4.851 0-8.798-3.946-8.798-8.798 0-4.85 3.947-8.797 8.798-8.797zm0 16.13c4.043 0 7.332-3.29 7.332-7.333 0-4.042-3.29-7.331-7.332-7.331s-7.331 3.289-7.331 7.331c0 4.043 3.289 7.332 7.331 7.332z"/><path d="M5.058 33.05h3.666v-3.665a.732.732 0 1 1 1.466 0v4.398a.732.732 0 0 1-.733.734H5.058a.732.732 0 1 1 0-1.467zm18.329-17.595H38.05v21.261H23.387V23.52H10.19v-8.064h13.197zM16.79 16.92h-5.132v5.132h5.132V16.92zm13.197 0h-5.132v5.132h5.132V16.92zm6.598 0h-5.132v5.132h5.132V16.92zm0 6.598h-5.132v5.132h5.132v-5.13zm-5.132 11.73h5.132v-5.131h-5.132v5.132zm-6.598 0h5.132v-5.131h-5.132v5.132zm0-6.598h5.132v-5.13h-5.132v5.132zm-6.599-6.598h5.132V16.92h-5.132v5.132z"/><path d="M18.988 40.382h22.728V11.789H6.525v9.53a.733.733 0 1 1-1.467 0V3.725c0-.405.328-.733.733-.733h3.666v-2.2c0-.405.328-.733.733-.733h5.133c.405 0 .733.328.733.734V2.99h16.13V.79c0-.405.327-.733.732-.733h5.132c.406 0 .734.328.734.734V2.99h3.665c.406 0 .733.328.733.733v37.393a.732.732 0 0 1-.733.732H18.99a.732.732 0 1 1 0-1.466zM14.59 1.525h-3.665v4.399h3.665v-4.4zm22.728 0h-3.666v4.399h3.666v-4.4zm4.4 2.932h-2.933v2.2a.733.733 0 0 1-.734.733h-5.132a.733.733 0 0 1-.733-.733v-2.2h-16.13v2.2a.732.732 0 0 1-.732.733H10.19a.732.732 0 0 1-.733-.733v-2.2H6.525v5.865h35.191V4.457z"/></g><defs><clipPath id="a"><path fill="#fff" transform="matrix(-1 0 0 1 43.182 .058)" d="M0 0h42.523v42.523H0z"/></clipPath></defs></svg>