<svg width="32" height="32" viewBox="0 0 32 32" fill="none" xmlns="http://www.w3.org/2000/svg"><g clip-path="url(#a)"><path d="M30.092 2.947a6.483 6.483 0 0 0-4.614-1.911 6.483 6.483 0 0 0-4.614 1.911L1.479 22.332a5.064 5.064 0 0 0 0 7.153 5.043 5.043 0 0 0 3.577 1.48c1.295 0 2.59-.494 3.577-1.48L23.9 14.218a3.592 3.592 0 0 0 0-5.074 3.592 3.592 0 0 0-5.074 0l-9.808 9.809a.767.767 0 0 0 1.084 1.084l9.808-9.808a2.057 2.057 0 0 1 2.905 0 2.057 2.057 0 0 1 0 2.905L7.55 28.401a3.53 3.53 0 0 1-4.986 0 3.502 3.502 0 0 1-1.032-2.493c0-.941.367-1.826 1.032-2.492L21.948 4.03a4.96 4.96 0 0 1 3.53-1.462 4.96 4.96 0 0 1 3.53 1.462 4.998 4.998 0 0 1 0 7.06L15.082 25.017a.767.767 0 0 0 1.084 1.084l13.926-13.926a6.533 6.533 0 0 0 0-9.228z" fill="#fff"/></g><defs><clipPath id="a"><path fill="#fff" d="M0 0h32v32H0z"/></clipPath></defs></svg>