<svg width="43" height="43" viewBox="0 0 43 43" fill="none" xmlns="http://www.w3.org/2000/svg"><g clip-path="url(#a)" fill="#fff"><path d="M1.133 28.446c.391 0 .708.318.708.709v.709a.709.709 0 0 1-1.417 0v-.71c0-.39.317-.708.709-.708zm28.411 4.961a.709.709 0 0 1 0-1.418h1.433a.709.709 0 1 1 0 1.418h-1.433zM1.133 3.36a.71.71 0 0 1 .708.71v1.432a.709.709 0 0 1-1.417 0V4.07c0-.391.317-.708.709-.708zm33.429 30.047a.709.709 0 1 1 0-1.418h1.435a.709.709 0 0 1 0 1.418h-1.435zm7.671-18.63a.709.709 0 0 1-.708-.708v-1.434a.709.709 0 0 1 1.417 0v1.434a.709.709 0 0 1-.709.708zm0 10.035a.709.709 0 0 1-.708-.708V22.67a.709.709 0 0 1 1.417 0v1.434a.709.709 0 0 1-.709.708zm0 5.018a.709.709 0 0 1-.708-.71v-1.433a.709.709 0 1 1 1.417 0v1.434a.709.709 0 0 1-.709.709zm0-10.035a.709.709 0 0 1-.708-.708v-1.434a.709.709 0 1 1 1.417 0v1.434a.708.708 0 0 1-.709.708zm0-10.035a.709.709 0 0 1-.708-.708V7.618a.709.709 0 1 1 1.417 0v1.434a.709.709 0 0 1-.709.708zm-41.1-1.383c.391 0 .708.317.708.709v1.432a.709.709 0 0 1-1.417 0V9.086c0-.392.317-.709.709-.709zM19.157.101a.709.709 0 1 1 0 1.417h-1.433a.709.709 0 0 1 0-1.417h1.433zm20.069 0a.709.709 0 1 1 0 1.417h-1.433a.709.709 0 0 1 0-1.417h1.433zm-15.052 0a.709.709 0 0 1 0 1.417h-1.433a.709.709 0 1 1 0-1.417h1.433zM1.133 18.412c.391 0 .708.317.708.709v1.433a.709.709 0 1 1-1.417 0v-1.433a.71.71 0 0 1 .709-.71zM29.194.101a.709.709 0 1 1 0 1.417H27.76a.709.709 0 1 1 0-1.417h1.434zM3.967 1.518a2.12 2.12 0 0 0-.938.218.709.709 0 1 1-.625-1.272A3.511 3.511 0 0 1 3.967.1h.142a.709.709 0 0 1 0 1.417h-.142zm3.722 0a.709.709 0 1 1 0-1.417h1.433a.709.709 0 1 1 0 1.417H7.69zM1.133 13.394c.391 0 .708.317.708.709v1.434a.709.709 0 0 1-1.417 0v-1.434c0-.392.317-.709.709-.709zM41.525 31.87a.709.709 0 0 1-.213.979 3.545 3.545 0 0 1-1.686.551h-.045a.709.709 0 0 1-.044-1.417c.36-.023.708-.136 1.011-.33a.709.709 0 0 1 .977.217zM1.133 23.43c.391 0 .708.316.708.708v1.433a.709.709 0 0 1-1.417 0v-1.433c0-.392.317-.709.709-.709zm41.1-18.687a.709.709 0 0 1-.708-.709v-.39c0-.262-.048-.52-.142-.765a.709.709 0 1 1 1.322-.51c.157.406.237.839.237 1.275v.39a.709.709 0 0 1-.709.71zM34.21.101a.709.709 0 0 1 0 1.417h-1.435a.709.709 0 0 1 0-1.417h1.434zM12.707 1.518a.709.709 0 1 1 0-1.417h1.433a.709.709 0 0 1 0 1.417h-1.433zm12.519 31.889a.709.709 0 1 1 0-1.418h.709a.709.709 0 1 1 0 1.418h-.709zm8.858-22.677a2.48 2.48 0 1 1 0-4.96 2.48 2.48 0 0 1 0 4.96zm0-3.543a1.063 1.063 0 1 0 0 2.126 1.063 1.063 0 0 0 0-2.126zm-6.378 5.669a2.48 2.48 0 1 1 0 4.96 2.48 2.48 0 0 1 0-4.96zm0 3.543a1.063 1.063 0 1 0 0-2.125 1.063 1.063 0 0 0 0 2.125zm8.634 1.227a.709.709 0 0 1-1.002-.035L25.417 6.963a.71.71 0 1 1 1.036-.967l9.92 10.63a.709.709 0 0 1-.033 1.001zm-3.319 7.277h-1.418a.709.709 0 0 1 0-1.417h1.418a.709.709 0 0 1 0 1.417zm-4.251 0h-1.418a.709.709 0 0 1 0-1.417h1.417a.709.709 0 1 1 0 1.417zm-4.253 0H23.1a.709.709 0 0 1 0-1.417h1.417a.709.709 0 1 1 0 1.417zM20.974 7.187h-1.417a.708.708 0 0 1 0-1.417h1.417a.709.709 0 1 1 0 1.417zm-4.252 0h-9.92a.709.709 0 1 1 0-1.417h9.92a.709.709 0 1 1 0 1.417zm4.252 5.669h-1.417a.709.709 0 0 1 0-1.417h1.417a.709.709 0 1 1 0 1.417zM6.802 11.44h9.92a.709.709 0 1 1 0 1.416h-9.92a.709.709 0 1 1 0-1.417zm14.172-1.418h-7.086a.709.709 0 0 1 0-1.417h7.086a.709.709 0 1 1 0 1.417zM6.802 8.605h4.251a.709.709 0 0 1 0 1.417H6.802a.709.709 0 1 1 0-1.417zm12.046 26.927a2.126 2.126 0 1 1 0 4.252 2.126 2.126 0 0 1 0-4.252zm0 2.835a.709.709 0 1 0 0-1.417.709.709 0 0 0 0 1.417z"/><path d="M5.384 32.698c.942 0 1.865.27 2.658.78l1.617-2.803-.059-.103H3.967a.709.709 0 0 1-.709-.709V3.644a.71.71 0 0 1 .71-.709h35.43a.71.71 0 0 1 .71.71v26.218a.709.709 0 0 1-.71.709H14.633l-.061.106 1.618 2.8a4.96 4.96 0 1 1-2.283 4.552l-1.79-3.1-1.792 3.1a4.96 4.96 0 1 1-4.94-5.332zm4.595 3.099l8.15-14.11a1.715 1.715 0 0 0-.386-2.172L9.133 34.42c.356.41.641.875.846 1.377zm9.74-14.437c-.06.363-.183.713-.363 1.035L17.09 26.32l18.765-.042-.042-4.918H19.72zm-9.241 7.898l.818-1.417-4.805-8.324a1.714 1.714 0 0 0-.386 2.171l4.373 7.57zm1.577-2.938h.12l2.864-4.96H9.192l2.863 4.96zm-3.274 2.835l-3.905-6.762a3.184 3.184 0 0 1-.2-.445v7.207H8.78zm29.909 0V4.353H4.676V19.73a3.09 3.09 0 0 1 1.352-1.61l.354-.205a.708.708 0 0 1 .97.259l1.022 1.768h7.484l1.023-1.77a.709.709 0 0 1 .97-.26l.354.204a3.1 3.1 0 0 1 1.434 1.826h16.174a1.462 1.462 0 0 1 1.46 1.46v4.876a1.461 1.461 0 0 1-1.46 1.46H16.27l-.818 1.417H38.69zM18.848 41.202a3.543 3.543 0 1 0 0-7.087 3.543 3.543 0 0 0 0 7.087zm-4.595-5.405c.205-.502.49-.967.846-1.377l-1.346-2.326-.82 1.417 1.32 2.286zm-8.869 5.405a3.543 3.543 0 1 0 0-7.087 3.543 3.543 0 0 0 0 7.087z"/><path d="M5.384 35.532a2.126 2.126 0 1 1 0 4.252 2.126 2.126 0 0 1 0-4.252zm0 2.835a.709.709 0 1 0 0-1.417.709.709 0 0 0 0 1.417z"/></g><defs><clipPath id="a"><path fill="#fff" transform="matrix(-1 0 0 1 42.942 .096)" d="M0 0h42.523v42.523H0z"/></clipPath></defs></svg>