<svg width="44" height="44" viewBox="0 0 44 44" fill="none" xmlns="http://www.w3.org/2000/svg"><g clip-path="url(#a)"><path d="M35.972 28.935a4.063 4.063 0 0 0-2.867 1.182c-.77.77-1.2 1.774-1.2 2.85 0 1.075.42 2.078 1.2 2.849a4.078 4.078 0 0 0 2.867 1.182c2.204 0 3.996-1.81 3.996-4.031 0-2.222-1.792-4.032-3.996-4.032zm0 6.271c-1.236 0-2.275-1.021-2.275-2.24 0-1.218 1.039-2.24 2.275-2.24 1.219 0 2.204 1.004 2.204 2.24 0 1.237-.985 2.24-2.204 2.24zm1.04-19.702a.87.87 0 0 0-.6-.232h-4.597a.899.899 0 0 0-.896.896v7.346c0 .493.403.896.896.896h7.293a.899.899 0 0 0 .896-.896v-4.918a.896.896 0 0 0-.296-.663l-2.696-2.428zm1.2 7.114h-5.5v-5.563h3.35l2.15 1.935v3.628zm-24.119 6.317a4.063 4.063 0 0 0-2.867 1.182c-.77.77-1.2 1.774-1.2 2.85 0 1.075.42 2.078 1.2 2.849a4.078 4.078 0 0 0 2.867 1.182c2.204 0 3.996-1.81 3.996-4.031 0-2.222-1.792-4.032-3.996-4.032zm0 6.271c-1.236 0-2.275-1.021-2.275-2.24 0-1.218 1.039-2.24 2.275-2.24 1.219 0 2.204 1.004 2.204 2.24 0 1.237-.985 2.24-2.204 2.24zm-5.976-5.17h-1.8v-2.382a.899.899 0 0 0-.896-.896.899.899 0 0 0-.896.896v3.279c0 .492.403.896.896.896h2.696a.899.899 0 0 0 .896-.896.899.899 0 0 0-.896-.896zm4.543-4.882a.899.899 0 0 0-.896-.896H.896a.899.899 0 0 0-.896.896c0 .493.403.896.896.896h10.868a.893.893 0 0 0 .896-.896zm-9.945-3.235l10.868.063a.904.904 0 0 0 .905-.887.887.887 0 0 0-.887-.905l-10.868-.062h-.01a.89.89 0 0 0-.895.887.887.887 0 0 0 .887.904zm1.827-4.067H15.41a.899.899 0 0 0 .896-.896.899.899 0 0 0-.896-.896H4.542a.899.899 0 0 0-.895.896c0 .493.403.896.895.896zm39.127-1.21l-6.415-5.313a.882.882 0 0 0-.574-.206h-7.544V7.898a.899.899 0 0 0-.896-.896H5.42a.899.899 0 0 0-.895.896v6.558c0 .493.403.896.896.896a.899.899 0 0 0 .895-.896V8.794h21.037v21.243h-7.347a.899.899 0 0 0-.895.896c0 .492.403.896.895.896h10.94a.899.899 0 0 0 .896-.896.899.899 0 0 0-.896-.896h-1.8V12.915h7.22l5.842 4.838-.063 12.266h-.931a.899.899 0 0 0-.896.896c0 .493.403.896.896.896h1.818a.89.89 0 0 0 .896-.887L44 17.34a.946.946 0 0 0-.331-.699z" fill="#fff"/></g><defs><clipPath id="a"><path fill="#fff" d="M0 0h44v44H0z"/></clipPath></defs></svg>