<svg width="64" height="64" viewBox="0 0 64 64" fill="none" xmlns="http://www.w3.org/2000/svg"><path d="M23.087 25.927c-2.108 0-3.824 1.705-3.824 3.8 0 2.096 1.716 3.8 3.824 3.8 2.109 0 3.824-1.704 3.824-3.8 0-2.095-1.715-3.8-3.824-3.8zm0 5.737a1.945 1.945 0 0 1-1.949-1.937c0-1.068.874-1.937 1.95-1.937 1.074 0 1.948.869 1.948 1.937a1.945 1.945 0 0 1-1.949 1.937zm9.97-5.737c-2.108 0-3.824 1.705-3.824 3.8 0 2.096 1.716 3.8 3.824 3.8 2.109 0 3.824-1.704 3.824-3.8 0-2.095-1.715-3.8-3.824-3.8zm0 5.737a1.945 1.945 0 0 1-1.949-1.937c0-1.068.875-1.937 1.95-1.937 1.074 0 1.948.869 1.948 1.937a1.945 1.945 0 0 1-1.949 1.937zm9.97-5.737c-2.109 0-3.824 1.705-3.824 3.8 0 2.096 1.715 3.8 3.824 3.8s3.824-1.704 3.824-3.8c0-2.095-1.716-3.8-3.824-3.8zm0 5.737a1.945 1.945 0 0 1-1.95-1.937c0-1.068.875-1.937 1.95-1.937s1.949.869 1.949 1.937a1.945 1.945 0 0 1-1.95 1.937zm-19.94 3.533c-2.108 0-3.824 1.705-3.824 3.8 0 2.096 1.716 3.8 3.824 3.8 2.109 0 3.824-1.704 3.824-3.8 0-2.095-1.715-3.8-3.824-3.8zm0 5.737a1.945 1.945 0 0 1-1.949-1.937c0-1.068.874-1.937 1.95-1.937 1.074 0 1.948.869 1.948 1.937a1.945 1.945 0 0 1-1.949 1.937zm19.94-5.737c-2.109 0-3.824 1.705-3.824 3.8 0 2.096 1.715 3.8 3.824 3.8s3.824-1.704 3.824-3.8c0-2.095-1.716-3.8-3.824-3.8zm0 5.737a1.945 1.945 0 0 1-1.95-1.937c0-1.068.875-1.937 1.95-1.937s1.949.869 1.949 1.937a1.945 1.945 0 0 1-1.95 1.937zm-9.97-5.737c-2.108 0-3.824 1.705-3.824 3.8 0 2.096 1.716 3.8 3.824 3.8 2.109 0 3.824-1.704 3.824-3.8 0-2.095-1.715-3.8-3.824-3.8zm0 5.737a1.945 1.945 0 0 1-1.949-1.937c0-1.068.875-1.937 1.95-1.937 1.074 0 1.948.869 1.948 1.937a1.945 1.945 0 0 1-1.949 1.937zm0 3.532c-2.108 0-3.824 1.705-3.824 3.8 0 2.096 1.716 3.801 3.824 3.801 2.109 0 3.825-1.705 3.825-3.8 0-2.096-1.716-3.8-3.825-3.8zm0 5.737a1.945 1.945 0 0 1-1.949-1.936c0-1.068.875-1.937 1.95-1.937 1.074 0 1.948.868 1.948 1.937a1.945 1.945 0 0 1-1.949 1.936zm-9.97-5.737c-2.108 0-3.824 1.705-3.824 3.8 0 2.096 1.716 3.801 3.824 3.801 2.109 0 3.824-1.705 3.824-3.8 0-2.096-1.715-3.8-3.824-3.8zm0 5.737a1.945 1.945 0 0 1-1.949-1.936c0-1.069.874-1.937 1.95-1.937 1.074 0 1.948.868 1.948 1.937a1.945 1.945 0 0 1-1.949 1.936zm-8.644-20.476l1.379-1.37a.927.927 0 0 0 0-1.318.942.942 0 0 0-1.326 0l-1.379 1.37-1.378-1.37a.942.942 0 0 0-1.326 0 .928.928 0 0 0 0 1.318l1.378 1.37-1.378 1.37a.927.927 0 0 0 0 1.317.938.938 0 0 0 1.326 0l1.378-1.37 1.378 1.37a.938.938 0 0 0 1.326 0 .928.928 0 0 0 0-1.318l-1.378-1.37zm0 9.27l1.379-1.37a.927.927 0 0 0 0-1.318.942.942 0 0 0-1.326 0l-1.379 1.37-1.378-1.37a.942.942 0 0 0-1.326 0 .928.928 0 0 0 0 1.318l1.378 1.37-1.378 1.37a.927.927 0 0 0 0 1.317.937.937 0 0 0 1.326 0l1.378-1.37 1.378 1.37a.937.937 0 0 0 .663.273c.24 0 .48-.091.663-.273a.928.928 0 0 0 0-1.318l-1.378-1.37zm1.379 10.639l-1.379-1.37 1.379-1.369a.928.928 0 0 0 0-1.318.942.942 0 0 0-1.327 0l-1.378 1.37-1.378-1.37a.942.942 0 0 0-1.326 0 .928.928 0 0 0 0 1.318l1.378 1.37-1.378 1.37a.928.928 0 0 0 0 1.317.938.938 0 0 0 1.326 0l1.378-1.37 1.378 1.37a.938.938 0 0 0 1.326 0 .927.927 0 0 0 0-1.318z" fill="#68A7CF"/><path d="M63.946 52.408L61.39 39.036a.938.938 0 0 0-1.842.348l2.557 13.372c.143.748-.493 1.455-1.36 1.455H46.872l8.999-8.943a.94.94 0 0 0 .274-.658V21.59l2.572 13.446a.937.937 0 0 0 1.842-.348l-4.42-23.112a2.605 2.605 0 0 0-2.605-2.475h-8.216V6.105a.934.934 0 0 0-.937-.931.935.935 0 0 0-.938.931v2.996h-6.279V6.105a.934.934 0 0 0-.937-.931.934.934 0 0 0-.938.931v2.996H29.01V6.105a.934.934 0 0 0-.938-.931.934.934 0 0 0-.937.931v2.996h-6.28V6.105a.934.934 0 0 0-.937-.931.934.934 0 0 0-.937.931v2.996h-6.279V6.105a.934.934 0 0 0-.937-.931.934.934 0 0 0-.938.931v2.996H2.611A2.606 2.606 0 0 0 0 11.696v44.303a2.606 2.606 0 0 0 2.61 2.594h23.275a.934.934 0 0 0 .937-.932.934.934 0 0 0-.937-.931H2.61a.734.734 0 0 1-.736-.731v-34.8H54.27v22.479H43.746a2.606 2.606 0 0 0-2.61 2.594V56.73H30.26a.934.934 0 0 0-.938.931c0 .515.42.932.938.932h11.813a.945.945 0 0 0 .663-.273l2.26-2.246h15.749c2.036 0 3.565-1.761 3.201-3.666zM1.876 19.335v-7.64c0-.402.33-.73.735-.73h8.216v4.185c0 .514.42.931.938.931a.934.934 0 0 0 .937-.931v-4.185h6.279v4.185c0 .514.42.931.937.931a.934.934 0 0 0 .938-.931v-4.185h6.279v4.185c0 .514.42.931.937.931a.934.934 0 0 0 .938-.931v-4.185h6.278v4.185c0 .514.42.931.938.931a.934.934 0 0 0 .938-.931v-4.185h6.278v4.185c0 .514.42.931.938.931a.934.934 0 0 0 .937-.931v-4.185h8.216c.406 0 .736.328.736.73v7.64H1.875zM43.01 55.412v-9.14c0-.403.33-.73.736-.73h9.197l-9.933 9.87z" fill="#68A7CF"/></svg>