<svg width="78" height="78" viewBox="0 0 78 78" fill="none" xmlns="http://www.w3.org/2000/svg"><path d="M53.168 56.367a1.523 1.523 0 1 1-3.047 0 1.523 1.523 0 0 1 3.047 0zm-25.289 0a1.523 1.523 0 1 1-3.047 0 1.523 1.523 0 0 1 3.047 0zm-1.066-19.804h24.375c.84 0 1.523-.683 1.523-1.524v-3.047c0-7.547-6.106-13.71-13.711-13.71-7.56 0-13.71 6.15-13.71 13.71v3.047c0 .841.681 1.523 1.523 1.523zm1.523-4.57c0-5.88 4.784-10.665 10.664-10.665 5.869 0 10.664 4.748 10.664 10.664v1.524H28.336v-1.524zM48.14 9.14C48.14 4.1 44.04 0 39 0c-5.04 0-9.14 4.1-9.14 9.14 0 5.041 4.1 9.141 9.14 9.141 5.04 0 9.14-4.1 9.14-9.14zM39 15.235a6.1 6.1 0 0 1-6.094-6.093A6.1 6.1 0 0 1 39 3.047a6.101 6.101 0 0 1 6.094 6.094A6.101 6.101 0 0 1 39 15.234z" fill="#fff"/><path d="M1.782 46.87l13.563 15.728c.223.271.346.614.346.966v12.913c0 .841.682 1.523 1.524 1.523h18.738c.841 0 1.524-.682 1.524-1.523V55.845a7.57 7.57 0 0 0-2.256-5.41L24.374 40.044c-3.232-3.222-8.007-3.759-11.73-1.876v-12.27c0-5.968-5.31-10.664-11.12-10.664-.842 0-1.524.682-1.524 1.524v25.216c0 1.778.627 3.51 1.765 4.877l.017.02zm1.265-28.439c3.582.704 6.55 3.778 6.55 7.467v15.238c.002.403.17.797.447 1.074l10.927 10.928a1.524 1.524 0 1 0 2.155-2.155l-9.733-9.732c2.745-1.756 6.442-1.438 8.838.959l10.87 10.413a4.541 4.541 0 0 1 1.329 3.222v19.108H18.738v-11.39a4.572 4.572 0 0 0-1.061-2.926l-.015-.018L4.098 44.891a4.581 4.581 0 0 1-1.051-2.917V18.43zm73.43-3.197c-6.029 0-11.121 4.884-11.121 10.664v12.27a10.095 10.095 0 0 0-4.57-1.082c-2.704 0-5.246 1.05-7.16 2.958L42.755 50.458a7.567 7.567 0 0 0-2.232 5.387v20.632c0 .841.682 1.523 1.524 1.523h18.738c.841 0 1.524-.682 1.524-1.523V63.564c0-.352.122-.695.345-.966L76.235 46.85A7.634 7.634 0 0 0 78 41.974V16.758c0-.842-.683-1.524-1.523-1.524zm-1.524 26.74a4.582 4.582 0 0 1-1.052 2.917L60.323 60.637a4.571 4.571 0 0 0-1.061 2.927v11.39H43.57v-19.11a4.54 4.54 0 0 1 1.329-3.221l10.87-10.413c2.396-2.396 6.093-2.715 8.838-.96l-9.733 9.733a1.524 1.524 0 0 0 2.154 2.155L67.956 42.21c.276-.276.445-.666.446-1.074V25.898c0-3.569 2.92-6.753 6.551-7.467v23.543z" fill="#fff"/></svg>