<svg width="78" height="78" viewBox="0 0 78 78" fill="none" xmlns="http://www.w3.org/2000/svg"><g clip-path="url(#a)" fill="#fff"><path d="M26.957 22.852a1.523 1.523 0 1 1-3.047 0 1.523 1.523 0 0 1 3.047 0zM39.143 9.141a1.523 1.523 0 1 0 0-3.047 15.26 15.26 0 0 0-14.38 10.208 1.523 1.523 0 1 0 2.875 1.007 12.209 12.209 0 0 1 11.505-8.168zM4.113 19.77c0 .841.682 1.524 1.524 1.524h6.093c.842 0 1.524-.683 1.524-1.524s-.682-1.488-1.524-1.488H5.637c-.842 0-1.524.647-1.524 1.488zm70.077 0c0-.841-.681-1.488-1.523-1.488h-6.093c-.842 0-1.524.647-1.524 1.488s.682 1.524 1.524 1.524h6.093c.842 0 1.524-.683 1.524-1.524zm-63.3 18.077l5.276-3.047a1.523 1.523 0 1 0-1.523-2.638l-5.277 3.047a1.523 1.523 0 1 0 1.524 2.638zM67.416 1.693L62.14 4.74a1.524 1.524 0 0 0 1.523 2.639l5.278-3.047a1.524 1.524 0 0 0-1.524-2.639zM8.809 2.25a1.524 1.524 0 0 0 .557 2.082l5.277 3.047a1.524 1.524 0 0 0 1.523-2.639L10.89 1.693a1.524 1.524 0 0 0-2.081.558zm58.607 35.597a1.524 1.524 0 0 0 1.524-2.638l-5.277-3.047a1.523 1.523 0 1 0-1.524 2.639l5.277 3.046z"/><path d="M7.463 77.398c.288.38.737.602 1.213.602h60.937a1.523 1.523 0 0 0 1.467-1.932l-3.567-12.803a7.64 7.64 0 0 0-5.55-5.227l-17.365-4.085a9.11 9.11 0 0 0 3.687-7.336c0-2.801 1.424-6.503 3.865-8.383 5.207-4.012 8.453-10.325 8.317-17.326C60.25 9.601 50.766.167 39.46.002 27.549-.17 17.816 9.412 17.816 21.33c0 6.734 3.082 12.932 8.454 17.006 2.286 1.732 3.734 5.318 3.734 8.282 0 3 1.453 5.667 3.692 7.335l-17.37 4.086a7.64 7.64 0 0 0-5.55 5.227c-.004.01-3.568 12.803-3.568 12.803a1.52 1.52 0 0 0 .255 1.33zm31.682-16.336l-3.82-4.364 3.82-.898 3.818.898-3.818 4.364zm-7.176-3.574l4.885 5.583-6.155 4.104-3.563-8.55 4.833-1.137zm14.351 0l4.833 1.137-3.563 8.55-6.156-4.104 4.886-5.583zm-1.1-10.414c-.23 3.116-2.828 5.637-6.075 5.637-3.203 0-5.835-2.484-6.075-5.637h12.15zM28.11 35.907c-4.605-3.493-7.247-8.806-7.247-14.578 0-10.192 8.323-18.43 18.552-18.28 9.576.14 17.822 8.345 18.006 17.917.113 5.861-2.486 11.276-7.13 14.855-2.49 1.916-4.167 5.1-4.785 8.207h-4.838V30.853l3.133-3.023a1.524 1.524 0 0 0-2.116-2.192l-2.541 2.451-2.54-2.451a1.524 1.524 0 1 0-2.116 2.192l3.133 3.023v13.175h-4.827c-.635-3.297-2.392-6.385-4.684-8.121zm-14.412 28.22a4.583 4.583 0 0 1 3.326-3.123l7.106-1.672 4.468 10.723a1.524 1.524 0 0 0 2.251.681l8.296-5.53 8.295 5.53a1.523 1.523 0 0 0 2.25-.68l4.469-10.724 7.105 1.672a4.583 4.583 0 0 1 3.327 3.123l3.016 10.826H10.682l3.016-10.826z"/></g><defs><clipPath id="a"><path fill="#fff" d="M0 0h78v78H0z"/></clipPath></defs></svg>