<svg width="44" height="43" viewBox="0 0 44 43" fill="none" xmlns="http://www.w3.org/2000/svg"><g clip-path="url(#a)" fill="#fff"><path d="M42.67 28.407h-9.214v-9.113a7.734 7.734 0 0 0-1.418-4.473v-3.544a2.11 2.11 0 0 0-.622-1.504L30.12 8.478a2.11 2.11 0 0 0-1.504-.624h-3.387a7.737 7.737 0 0 0-5.34-2.126H14.32C6.887 5.736.863 11.76.855 19.194v8.504a9.224 9.224 0 0 0 9.213 9.214h19.136a4.257 4.257 0 0 0 4.188-3.544h8.569v2.126a.709.709 0 1 0 1.417 0v-6.378a.709.709 0 0 0-.709-.709zM28.615 9.272a.71.71 0 0 1 .502.207l1.296 1.296a.71.71 0 0 1 .207.502v1.954l-3.959-3.96h1.954zm3.423 23.392a2.835 2.835 0 0 1-2.835 2.83H10.068a7.805 7.805 0 0 1-7.796-7.796v-8.504C2.28 12.543 7.67 7.153 14.321 7.145h5.569a6.4 6.4 0 0 1 1.413.163l-1.576 4.332a.709.709 0 0 1-.666.466h-2.614a9.922 9.922 0 1 0-.016 19.845 9.905 9.905 0 0 0 6.727-2.619.756.756 0 0 1 .506-.212h8.375v3.544zm0-4.966h-8.375a2.167 2.167 0 0 0-1.468.592 8.505 8.505 0 1 1-5.75-14.766h2.615a2.133 2.133 0 0 0 1.999-1.4l1.582-4.35c.652.311 1.246.73 1.758 1.24l.05.05 5.72 5.72a6.337 6.337 0 0 1 1.868 4.51v8.404zm9.922 4.253h-8.505v-2.127h8.505v2.127z"/><path d="M16.447 16.359a5.67 5.67 0 1 0 5.67 5.67 5.676 5.676 0 0 0-5.67-5.67zm0 9.922a4.252 4.252 0 1 1 0-8.505 4.252 4.252 0 0 1 0 8.505z"/></g><defs><clipPath id="a"><path fill="#fff" transform="translate(.855 .058)" d="M0 0h42.523v42.523H0z"/></clipPath></defs></svg>