<svg width="43" height="44" viewBox="0 0 43 44" fill="none" xmlns="http://www.w3.org/2000/svg"><g clip-path="url(#a)" fill="#fff"><path d="M20.215 11.493a8.505 8.505 0 1 1 13.868 9.269.709.709 0 0 1-1.002-1.002 7.087 7.087 0 1 0-10.017 0 .709.709 0 1 1-1.002 1.002 8.504 8.504 0 0 1-1.847-9.27z"/><path d="M17.457 24.186a1.398 1.398 0 0 1-.174-1.786l1.14-1.717a11.246 11.246 0 0 1-1.37-3.3l-2.016-.401a1.417 1.417 0 0 1-1.14-1.394v-1.673c0-.674.474-1.255 1.135-1.39l2.017-.4a11.236 11.236 0 0 1 1.371-3.301L17.283 7.11a1.397 1.397 0 0 1 .172-1.785l1.186-1.19a1.398 1.398 0 0 1 1.786-.173l1.717 1.14a11.248 11.248 0 0 1 3.301-1.371l.4-2.016a1.418 1.418 0 0 1 1.39-1.139h1.674c.675 0 1.256.476 1.39 1.138l.4 2.017c1.167.278 2.28.74 3.301 1.371l1.713-1.137a1.398 1.398 0 0 1 1.785.168l1.19 1.187c.482.474.555 1.227.173 1.786l-1.14 1.717a11.249 11.249 0 0 1 1.371 3.3l2.016.4a1.42 1.42 0 0 1 1.139 1.391v1.673c0 .675-.476 1.256-1.138 1.39l-2.017.4a11.25 11.25 0 0 1-1.371 3.301l1.137 1.713c.384.558.312 1.31-.168 1.785l-1.187 1.188a1.4 1.4 0 0 1-1.786.173L34 24.398a11.248 11.248 0 0 1-3.3 1.371l-.401 2.016a1.417 1.417 0 0 1-1.39 1.14h-1.673a1.417 1.417 0 0 1-1.39-1.133l-.401-2.017a11.246 11.246 0 0 1-3.3-1.371l-1.713 1.137a1.4 1.4 0 0 1-1.787-.169l-1.188-1.186zm-.667-10.564l-1.475.293-.003 1.672 1.478.294a11.434 11.434 0 0 1-.057-1.13c0-.38.02-.757.057-1.13zm22.564 2.26l1.475-.294v-1.672l-1.475-.299a11.102 11.102 0 0 1 0 2.264zM19.638 5.141l-1.176 1.18.836 1.257a11.428 11.428 0 0 1 1.601-1.6l-1.26-.837zm9.27-3.147h-1.671l-.294 1.478c.372-.04.748-.06 1.13-.06.38 0 .757.02 1.129.056l-.294-1.474zm7.593 3.146l-1.256.837a11.413 11.413 0 0 1 1.6 1.6l.837-1.26L36.5 5.14zm.005 19.22l1.176-1.18-.836-1.257a11.422 11.422 0 0 1-1.6 1.6l1.26.837zm-9.27 3.148l1.672.003.294-1.478a11.435 11.435 0 0 1-2.26 0l.294 1.474zm.836-2.835c5.48 0 9.922-4.443 9.922-9.922-.006-5.478-4.444-9.917-9.922-9.923-5.48 0-9.922 4.443-9.922 9.922 0 5.48 4.442 9.923 9.922 9.923zm-8.429-.312l1.256-.836a11.422 11.422 0 0 1-1.6-1.602l-.836 1.261 1.18 1.177z"/><path d="M28.073 11.917a2.835 2.835 0 1 1 0 5.67 2.835 2.835 0 0 1 0-5.67zm0 4.252a1.417 1.417 0 1 0 0-2.835 1.417 1.417 0 0 0 0 2.835zM8.034 29.99a.709.709 0 0 1 .317 1.185 2.829 2.829 0 0 0 0 4.007 2.896 2.896 0 0 0 4.007 0 2.829 2.829 0 0 0 0-4.006.709.709 0 1 1 1.002-1.003 4.252 4.252 0 0 1-3.005 7.258 4.252 4.252 0 0 1-3.006-7.258c.18-.18.44-.25.685-.184z"/><path d="M1.472 35.705l1.816-2.046c-.01-.16-.024-.32-.024-.481 0-.163.014-.322.024-.482l-1.81-2.04a1.413 1.413 0 0 1-.174-1.653l.912-1.581c.31-.52.915-.789 1.51-.672l2.672.548c.268-.178.548-.337.838-.477l.87-2.608a1.423 1.423 0 0 1 1.342-.957h1.814a1.43 1.43 0 0 1 1.346.968l.865 2.598c.29.14.57.299.838.477l2.683-.55a1.439 1.439 0 0 1 1.505.682l.906 1.577a1.41 1.41 0 0 1-.172 1.643l-1.815 2.046c.01.16.024.319.024.481 0 .163-.014.322-.024.481l1.81 2.04c.41.456.48 1.123.174 1.654l-.912 1.58a1.443 1.443 0 0 1-1.51.673l-2.672-.548a7.168 7.168 0 0 1-.838.477l-.866 2.609c-.199.57-.737.954-1.342.956H9.448a1.43 1.43 0 0 1-1.347-.967l-.865-2.598c-.29-.14-.57-.3-.838-.477l-2.682.55a1.443 1.443 0 0 1-1.505-.683l-.91-1.577a1.41 1.41 0 0 1 .171-1.643zm1.97-7.565l-.906 1.57 1.097 1.237a7.062 7.062 0 0 1 1.437-2.473l-1.628-.334zm7.82-3.466l-1.815-.004-.519 1.566a7.128 7.128 0 0 1 2.853 0l-.519-1.562zm6.913 5.038l-.91-1.573-1.625.334a7.088 7.088 0 0 1 1.437 2.474l1.098-1.235zm-.905 8.505l.905-1.57-1.099-1.237a7.062 7.062 0 0 1-1.436 2.473l1.63.334zm-7.822 3.466l1.815.004.518-1.563a7.125 7.125 0 0 1-2.852 0l.519 1.559zm-1.33-3.297l.031.016a5.67 5.67 0 0 0 4.414 0l.025-.013a5.678 5.678 0 0 0 3.437-5.21 5.677 5.677 0 0 0-3.44-5.211l-.019-.01a5.67 5.67 0 0 0-4.448 10.428zm-4.674-.169l1.626-.333a7.088 7.088 0 0 1-1.437-2.475l-1.098 1.236.91 1.572z"/><path d="M10.355 33.887a.702.702 0 0 1-.652-.978.819.819 0 0 1 .149-.234.742.742 0 0 1 1.006 0 .82.82 0 0 1 .149.234.702.702 0 0 1-.652.978z"/></g><defs><clipPath id="a"><path fill="#fff" transform="matrix(-1 0 0 1 42.942 .577)" d="M0 0h42.523v42.523H0z"/></clipPath></defs></svg>