<svg width="42" height="42" viewBox="0 0 42 42" fill="none" xmlns="http://www.w3.org/2000/svg"><g clip-path="url(#a)" fill="#316485"><path d="M39.913 35.903h.055V31.84c0-.088-.008-2.167-.733-4.332l-2.208-5.152h-3.602l-2.23 5.205c-.703 2.112-.711 4.191-.711 4.279v1.354h-2.032a2.035 2.035 0 0 1-2.033-2.032V28.34c3.234-1.878 5.42-5.37 5.42-9.372v-.096a2.707 2.707 0 0 0 2.032-2.614c0-1.217-.459-1.986-.715-2.322.023-.126.038-.254.038-.388v-1.354C33.194 5.47 27.724 0 21 0 14.277 0 8.807 5.47 8.807 12.194v1.354c0 .134.015.262.038.388-.257.336-.716 1.105-.716 2.322 0 1.26.867 2.31 2.032 2.614v.096c0 4.001 2.186 7.494 5.42 9.372v2.821c0 1.12-.912 2.032-2.032 2.032H10.16v-.954c1.332-.808 2.033-2.108 2.033-3.788 0-1.648-1.113-3.568-3.238-4.048l-.827-.186v3.557H6.774v-3.559l-.828.188c-2.125.484-3.236 2.402-3.236 4.048 0 1.68.7 2.98 2.032 3.788v1.704C1.948 35.23 0 38.05 0 41.323V42h1.355v-.677c0-3.507 2.679-6.4 6.097-6.74V42h1.355v-7.452h2.032V42h1.355v-7.452h1.354c.277 0 .541-.042.799-.105.588 3.14 3.345 5.525 6.653 5.525 3.308 0 6.065-2.386 6.654-5.525.257.063.521.105.798.105h1.354V42h1.355v-7.452h2.033V42h1.354v-7.417c3.419.341 6.097 3.233 6.097 6.74V42H42v-.678a8.086 8.086 0 0 0-2.087-5.419zm-30.73-4.671l-.377.187v1.774H8.13c-.702 0-1.381.1-2.032.268v-2.042l-.376-.187c-1.114-.554-1.656-1.463-1.656-2.78 0-.871.462-1.855 1.354-2.395v3.072h4.065v-3.074a2.858 2.858 0 0 1 1.355 2.396c0 1.318-.542 2.227-1.657 2.78zm22.656-15.555a4.12 4.12 0 0 0 .515-.392c.09.246.162.568.162.973 0 .5-.274.932-.677 1.167v-1.748zM20.323 1.39v4.707h1.354V1.39c5.542.345 9.96 4.863 10.143 10.447-2.41-1.285-7.47-1.675-10.82-1.675-3.35 0-8.41.39-10.82 1.675.183-5.584 4.6-10.103 10.143-10.447zM10.16 17.424a1.348 1.348 0 0 1-.677-1.166c0-.405.073-.728.162-.974.154.14.327.27.515.392v1.748zm.001-3.873c.133-.691 4.073-2.035 10.838-2.035 6.769 0 10.71 1.345 10.839 2.033 0 1.331-4.054 2.71-10.839 2.71-6.78 0-10.835-1.377-10.838-2.709zm1.354 5.417v-2.619c2.987 1.138 7.616 1.264 9.484 1.264 1.869 0 6.497-.126 9.484-1.264v2.619c0 5.23-4.254 9.483-9.484 9.483s-9.484-4.254-9.484-9.483zM21 38.613a5.425 5.425 0 0 1-5.38-4.792 3.368 3.368 0 0 0 1.316-2.66V29.01a10.767 10.767 0 0 0 8.129 0v2.152c0 1.084.52 2.04 1.315 2.66A5.425 5.425 0 0 1 21 38.613zm12.722-5.42h-1.883V31.84c0-.02.007-1.945.622-3.798l1.857-4.331h.23v6.221a2.03 2.03 0 0 0-1.354 1.908c0 .522.203.994.528 1.355zm1.504-.677a.678.678 0 1 1 .001-1.356.678.678 0 0 1-.001 1.356zm3.387 2.217a8.111 8.111 0 0 0-2.322-1.172c.578-.358.967-.993.967-1.723a2.03 2.03 0 0 0-1.355-1.907v-6.222h.231l1.836 4.28c.633 1.896.643 3.83.643 3.85v2.894z"/><path d="M21.677 19.645h6.097V18.29h-7.451v6.774h1.354v-5.419zM13.549 8.806h-1.355v1.355h1.354V8.806zm2.709-.677h-1.355v1.355h1.355V8.129z"/></g><defs><clipPath id="a"><path fill="#316485" d="M0 0h42v42H0z"/></clipPath></defs></svg>