<svg width="78" height="78" viewBox="0 0 78 78" fill="none" xmlns="http://www.w3.org/2000/svg"><g clip-path="url(#a)" fill="#fff"><path d="M62.214 19.64a1.524 1.524 0 1 0-2.156-2.154 1.524 1.524 0 0 0 2.156 2.154zM19.88 22.795a1.524 1.524 0 1 0-2.157-2.154 1.524 1.524 0 0 0 2.156 2.154zm-8.966 8.772l4.56-4.561a1.523 1.523 0 1 0-2.155-2.154l-4.56 4.561a1.523 1.523 0 0 0 2.155 2.154zM67.24 27.15a1.524 1.524 0 0 0 2.154-2.155l-3.039-3.039A1.524 1.524 0 0 0 64.2 24.11l3.04 3.04z"/><path d="M77.554 25.452L60.32 8.216a1.522 1.522 0 0 0-2.121-.032c-1.338 1.261-7.63 7.185-7.72 7.274l-.017.015c-1.49 1.49-2.957 2.155-4.757 2.155-3.678 0-6.497 1.039-8.837 3.255-1.92-1.817-4.095-2.757-7.13-3.07l-7.616-7.617a1.524 1.524 0 0 0-2.155 0L.447 29.718a1.52 1.52 0 0 0-.035 2.117l.034.037 12.721 12.7-.538.538a5.33 5.33 0 0 0 3.826 9.097 5.291 5.291 0 0 0 1.56 3.83 5.309 5.309 0 0 0 3.826 1.558 5.291 5.291 0 0 0 1.561 3.828 5.312 5.312 0 0 0 3.825 1.556 5.29 5.29 0 0 0 1.561 3.83 5.338 5.338 0 0 0 7.54 0l.54-.539.538.54a5.338 5.338 0 0 0 7.54 0 5.295 5.295 0 0 0 1.562-3.828 5.29 5.29 0 0 0 3.825-1.56 5.315 5.315 0 0 0 1.558-3.825 5.29 5.29 0 0 0 3.828-1.56 5.29 5.29 0 0 0 1.56-3.83 5.329 5.329 0 0 0 3.826-9.097l-.537-.537c10.622-10.61-2.815 2.837 16.986-16.967a1.523 1.523 0 0 0 0-2.154zM3.678 30.794l17.367-17.366 5.853 5.853L9.535 36.646l-5.857-5.852zm11.105 19.702a2.284 2.284 0 0 1 0-3.232l5.387-5.386a2.288 2.288 0 0 1 3.231 0 2.283 2.283 0 0 1 0 3.232l-5.385 5.385c-.891.89-2.342.89-3.233 0zm5.387 5.387a2.283 2.283 0 0 1 0-3.233l5.386-5.386a2.283 2.283 0 0 1 3.232 0 2.283 2.283 0 0 1 0 3.231v.002L23.4 55.883c-.89.89-2.34.89-3.23 0zm5.386 5.385a2.284 2.284 0 0 1 0-3.231l5.386-5.387c.891-.89 2.34-.89 3.232.001.88.878.906 2.324 0 3.231l-5.385 5.385a2.29 2.29 0 0 1-3.233 0zm5.386 5.387a2.284 2.284 0 0 1 0-3.233l5.386-5.385a2.284 2.284 0 1 1 3.232 3.231l-5.386 5.387a2.29 2.29 0 0 1-3.232 0zm11.85 0c-.89.89-2.34.89-3.231 0l-.54-.54 2.694-2.692a5.54 5.54 0 0 0 .498-.579l.578.578.002.001a2.283 2.283 0 0 1-.002 3.232zm16.16-16.16a2.29 2.29 0 0 1-3.233 0l-7.002-7.001a1.524 1.524 0 0 0-2.155 2.154l7.002 7.003a2.283 2.283 0 0 1 0 3.232c-.895.894-2.34.89-3.231 0l-7.002-7.004a1.524 1.524 0 0 0-2.155 2.155l7.002 7.003a2.287 2.287 0 0 1-1.616 3.9c-1.448 0-1.915-1.14-3.287-2.34a5.29 5.29 0 0 0-1.56-3.714 5.29 5.29 0 0 0-3.826-1.562 5.289 5.289 0 0 0-1.561-3.826 5.315 5.315 0 0 0-3.825-1.557 5.326 5.326 0 0 0-5.386-5.389 5.292 5.292 0 0 0-1.561-3.825 5.336 5.336 0 0 0-7.54 0l-2.695 2.694-3.63-3.62 17.93-17.932c2.22.253 3.716.892 5.086 2.166l-4.304 4.303a6.104 6.104 0 0 0 0 8.619 6.103 6.103 0 0 0 8.618-.001l4.31-4.31 15.62 15.622c.89.89.89 2.34 0 3.23zm-.539-8.077L45.485 29.49l1.077-1.077a1.524 1.524 0 1 0-2.154-2.155l-7.541 7.541a3.052 3.052 0 0 1-4.31 0 3.053 3.053 0 0 1 0-4.31l6.204-6.201c1.806-1.807 3.949-2.613 6.944-2.613 2.155 0 4.016-.648 5.759-2.019l15.17 15.563c-9.917 9.89-7.96 7.938-8.22 8.2zm10.375-10.353L53.712 16.597l5.5-5.182 15.11 15.114-5.534 5.536z"/></g><defs><clipPath id="a"><path fill="#fff" d="M0 0h78v78H0z"/></clipPath></defs></svg>