<svg width="78" height="78" viewBox="0 0 78 78" fill="none" xmlns="http://www.w3.org/2000/svg"><path d="M66.727 0H11.273c-2.52 0-4.57 2.05-4.57 4.57v68.86c0 2.52 2.05 4.57 4.57 4.57h55.454c2.52 0 4.57-2.05 4.57-4.57V4.57c0-2.52-2.05-4.57-4.57-4.57zm-9.293 5.398l8.484 8.485h-6.961c-.84 0-1.523-.684-1.523-1.524V5.4zM68.25 73.43c0 .84-.683 1.523-1.523 1.523H11.273c-.84 0-1.523-.683-1.523-1.523V4.57c0-.84.683-1.523 1.523-1.523h43.114v9.312c0 2.52 2.05 4.57 4.57 4.57h9.293v56.5zm0-61.524l-8.859-8.86h7.336c.84 0 1.523.684 1.523 1.524v7.336z" fill="#fff"/><path d="M62.11 28.64H45.137a1.523 1.523 0 0 0 0 3.047H62.11a1.523 1.523 0 1 0 0-3.046zm-15.896-6.866a1.535 1.535 0 0 0-1.078-.446c-.4 0-.793.163-1.077.447a1.535 1.535 0 0 0-.446 1.077c0 .4.163.793.446 1.077.284.283.677.446 1.077.446.401 0 .794-.163 1.078-.446.283-.284.446-.677.446-1.077 0-.401-.163-.794-.446-1.078zm15.896-.446H51.22a1.524 1.524 0 0 0 0 3.047h10.89a1.523 1.523 0 1 0 0-3.047zm0 14.625H45.606a1.524 1.524 0 0 0 0 3.047H62.11a1.523 1.523 0 0 0 0-3.047zm.392 7.313H15.89a1.523 1.523 0 0 0 0 3.047h46.612a1.523 1.523 0 1 0 0-3.047zm-.392 7.312H15.89a1.523 1.523 0 0 0 0 3.047h46.22a1.523 1.523 0 1 0 0-3.047zm.392 7.312H15.89a1.523 1.523 0 0 0 0 3.047h46.612a1.523 1.523 0 1 0 0-3.046zm1.078 7.76a1.535 1.535 0 0 0-1.078-.447c-.4 0-.794.163-1.077.447a1.535 1.535 0 0 0-.446 1.077c0 .4.163.793.446 1.077.283.283.676.446 1.077.446.4 0 .794-.163 1.077-.446.283-.284.446-.677.446-1.077 0-.401-.163-.794-.446-1.078zm-7.212-.447H15.89a1.523 1.523 0 0 0 0 3.047h40.478a1.523 1.523 0 1 0 0-3.047zM37.807 9.75H15.498c-.841 0-1.523.682-1.523 1.523l-.02 26.204c0 .841.682 1.523 1.523 1.523h22.33c.84 0 1.523-.682 1.523-1.523V11.273c0-.841-.682-1.523-1.524-1.523zm-1.523 26.203H17.002l.02-1.94a6.468 6.468 0 0 1 6.442-5.982h6.358a6.47 6.47 0 0 1 6.462 6.462v1.46zM24.206 22.547v-.99a2.44 2.44 0 0 1 2.437-2.438 2.44 2.44 0 0 1 2.438 2.438v.99a2.44 2.44 0 0 1-2.438 2.437 2.44 2.44 0 0 1-2.438-2.437zm12.078 4.98a9.485 9.485 0 0 0-4.806-2.395 5.45 5.45 0 0 0 .65-2.585v-.99a5.49 5.49 0 0 0-5.485-5.485 5.49 5.49 0 0 0-5.484 5.485v.99c0 .934.235 1.814.649 2.585a9.486 9.486 0 0 0-4.787 2.375v-14.71h19.263v14.73z" fill="#fff"/></svg>