<svg width="64" height="64" viewBox="0 0 64 64" fill="none" xmlns="http://www.w3.org/2000/svg"><path d="M61.188 27.311h-.937V14.498a5.944 5.944 0 0 0-5.938-5.937H28.566l-17.37-4.963-.016-.004c-.005 0-.01-.003-.015-.004-.01-.003-.02-.004-.031-.006l-.048-.01-.044-.005a.88.88 0 0 0-.05-.005l-.042-.001h-.052l-.039.003a.832.832 0 0 0-.053.006l-.036.006a.871.871 0 0 0-.054.01l-.033.01a1.06 1.06 0 0 0-.138.05l-.028.014a.845.845 0 0 0-.052.028l-.026.017a.851.851 0 0 0-.05.032l-.024.02a.934.934 0 0 0-.045.036l-.024.023a1.044 1.044 0 0 0-.04.04.903.903 0 0 0-.058.068.915.915 0 0 0-.097.154c-.008.013-.014.028-.02.042a.325.325 0 0 0-.018.043l-.016.047-.01.03-.004.015-.005.015L8.956 8.56H5.938a5.944 5.944 0 0 0-5.937 5.918l-.001.02v32.5a.939.939 0 0 0 1.875 0V18.821a5.915 5.915 0 0 0 4.063 1.614h48.378a4.067 4.067 0 0 1 4.06 4.063v6.563H48.06a.911.911 0 0 0-.17.016l-.013.002a.967.967 0 0 0-.072.018l-.016.004a.964.964 0 0 0-.062.022l-.024.01c-.017.006-.034.015-.05.023l-.033.015-.038.023-.041.025c-.01.006-.018.013-.027.02a.382.382 0 0 0-.047.035l-.02.017c-.016.014-.032.028-.047.044-.01.009-.018.019-.026.029l-.037.04a.93.93 0 0 0-.054.073l-.001.001-5 7.5a.922.922 0 0 0-.088.166c-.009.021-.016.043-.023.065l-.007.02a.913.913 0 0 0-.017.07l-.005.018c-.004.02-.006.042-.009.063l-.004.027c-.002.017-.002.035-.002.052l-.002.04.001.038.003.054.004.026c.003.021.005.043.01.064a.94.94 0 0 0 .022.088l.006.02a.937.937 0 0 0 .111.23l5 7.5c.021.03.043.058.066.086l.024.026a.94.94 0 0 0 .136.122l.026.02a.93.93 0 0 0 .088.052l.023.011a.917.917 0 0 0 .176.067l.03.008a.94.94 0 0 0 .077.014l.029.004a.908.908 0 0 0 .098.006h10.321V54.5a4.067 4.067 0 0 1-4.063 4.063H5.94A4.067 4.067 0 0 1 1.876 54.5v-3.751a.939.939 0 0 0-1.876 0V54.5l.002.029a5.944 5.944 0 0 0 5.937 5.909h48.374a5.944 5.944 0 0 0 5.938-5.937v-6.564h.937A2.815 2.815 0 0 0 64 45.123v-15a2.816 2.816 0 0 0-2.812-2.813zM11.612 5.668l16.543 4.727h.002l11.087 3.168H9.64l1.974-7.895zm46.764 14.507a5.914 5.914 0 0 0-4.063-1.613H5.938a4.067 4.067 0 0 1-4.063-4.063 4.067 4.067 0 0 1 4.063-4.062h2.55l-.781 3.126H5.938a.938.938 0 0 0 0 1.875h47.124a.937.937 0 1 0 0-1.875h-6.993l-10.94-3.126h19.184a4.067 4.067 0 0 1 4.063 4.063v5.675zm3.749 24.95c0 .517-.42.937-.937.937H48.563L44.188 39.5l4.375-6.563h12.625l.038-.002a2.79 2.79 0 0 0 .899-.16v12.35zm-.937-14.064l-.02.002h-.917v-1.876h.937a.938.938 0 0 1 0 1.875z" fill="#68A7CF"/><path d="M51.812 36.062a3.441 3.441 0 0 0-3.437 3.437 3.441 3.441 0 0 0 3.437 3.438 3.441 3.441 0 0 0 3.438-3.438 3.441 3.441 0 0 0-3.438-3.438zm0 5a1.564 1.564 0 0 1-1.562-1.563c0-.861.7-1.563 1.562-1.563.862 0 1.563.702 1.563 1.563 0 .862-.701 1.563-1.563 1.563z" fill="#68A7CF"/></svg>