<svg width="78" height="78" viewBox="0 0 78 78" fill="none" xmlns="http://www.w3.org/2000/svg"><g clip-path="url(#a)" fill="#fff"><path d="M50.356 63.272a1.522 1.522 0 0 0 0 2.154 1.52 1.52 0 0 0 2.153 0 1.524 1.524 0 0 0-2.154-2.154zM16.873 29.799a1.524 1.524 0 1 0 2.154 2.154 1.524 1.524 0 0 0-2.154-2.154z"/><path d="M69.941 46.234a1.524 1.524 0 0 0-2.521.594c-.532 1.587-1.402 2.935-1.985 3.518a3.045 3.045 0 0 1-4.308 0 3.05 3.05 0 0 1 0-4.309c.583-.583 1.933-1.452 3.518-1.983a1.525 1.525 0 0 0 .593-2.523l-6.853-6.844a4.576 4.576 0 0 0-6.464 0L47.24 39.37c-.534-1.01-1.162-1.91-1.78-2.529a6.09 6.09 0 0 0-8.617 0 6.09 6.09 0 0 0-.001 8.618c.619.618 1.52 1.246 2.529 1.78l-4.683 4.682a4.569 4.569 0 0 0 .001 6.465l5.268 5.26c-1.008.535-1.909 1.162-2.526 1.78a6.09 6.09 0 0 0-.001 8.618 6.089 6.089 0 0 0 8.616.001c.62-.618 1.246-1.52 1.782-2.53l5.14 5.14a4.568 4.568 0 0 0 6.463 0l4.683-4.682c.534 1.01 1.16 1.91 1.78 2.528a6.09 6.09 0 0 0 8.617 0 6.1 6.1 0 0 0 0-8.618c-.618-.618-1.519-1.245-2.528-1.78l4.683-4.682a4.577 4.577 0 0 0-.001-6.464l-6.723-6.723zm4.569 11.033l-6.266 6.265a1.524 1.524 0 0 0 .593 2.522c1.586.53 2.936 1.4 3.519 1.983a3.05 3.05 0 0 1 0 4.31 3.045 3.045 0 0 1-4.31 0c-.582-.583-1.45-1.932-1.983-3.52a1.524 1.524 0 0 0-2.521-.592L57.276 74.5a1.523 1.523 0 0 1-2.156 0l-6.722-6.722a1.524 1.524 0 0 0-2.522.593c-.532 1.588-1.401 2.936-1.985 3.52a3.042 3.042 0 0 1-4.307-.001 3.044 3.044 0 0 1 0-4.31c.582-.583 1.932-1.452 3.517-1.983a1.524 1.524 0 0 0 .593-2.522l-6.852-6.844a1.524 1.524 0 0 1 0-2.156l6.265-6.265a1.524 1.524 0 0 0-.594-2.522c-1.585-.531-2.935-1.4-3.518-1.983a3.045 3.045 0 0 1 0-4.31 3.045 3.045 0 0 1 4.31 0c.583.583 1.452 1.933 1.983 3.518a1.524 1.524 0 0 0 2.522.594l6.265-6.265a1.526 1.526 0 0 1 2.156 0l5.269 5.261c-1.009.535-1.91 1.16-2.527 1.78a6.1 6.1 0 0 0 0 8.617 6.099 6.099 0 0 0 8.615 0c.62-.617 1.247-1.518 1.783-2.528l5.139 5.139a1.528 1.528 0 0 1 0 2.156zM32.533 28.226c.583.582 1.453 1.93 1.984 3.517a1.524 1.524 0 0 0 2.521.593l6.266-6.265a4.568 4.568 0 0 0 0-6.464l-5.261-5.261c1.01-.535 1.91-1.162 2.529-1.78a6.09 6.09 0 0 0 0-8.618 6.088 6.088 0 0 0-8.618 0c-.618.619-1.245 1.52-1.78 2.529l-5.14-5.14a4.578 4.578 0 0 0-6.464 0l-4.682 4.682c-.535-1.01-1.162-1.91-1.78-2.529a6.102 6.102 0 0 0-8.617 0 6.09 6.09 0 0 0 0 8.62c.617.617 1.518 1.244 2.528 1.779L1.336 18.57a4.578 4.578 0 0 0 0 6.464l5.14 5.14c-1.01.534-1.91 1.161-2.528 1.78a6.088 6.088 0 0 0 0 8.617 6.09 6.09 0 0 0 8.617 0c.62-.619 1.246-1.52 1.78-2.529l5.261 5.261a4.557 4.557 0 0 0 3.232 1.337c1.17 0 2.341-.446 3.232-1.337l6.266-6.265a1.523 1.523 0 0 0-.594-2.522c-1.586-.531-2.935-1.4-3.518-1.985a3.044 3.044 0 0 1 0-4.308 3.043 3.043 0 0 1 4.309.002zm-6.464 6.46c.629.63 1.52 1.253 2.526 1.785l-4.679 4.68a1.526 1.526 0 0 1-2.155 0l-6.845-6.846a1.524 1.524 0 0 0-2.522.594c-.53 1.586-1.4 2.935-1.983 3.518a3.044 3.044 0 0 1-4.31 0 3.043 3.043 0 0 1 0-4.307c.585-.584 1.934-1.454 3.52-1.985a1.524 1.524 0 0 0 .592-2.522L3.491 22.88a1.526 1.526 0 0 1 0-2.154l6.265-6.266a1.524 1.524 0 0 0-.593-2.522c-1.586-.532-2.936-1.4-3.518-1.984a3.044 3.044 0 0 1 0-4.309 3.05 3.05 0 0 1 4.309 0c.582.583 1.451 1.933 1.983 3.52a1.524 1.524 0 0 0 2.522.592l6.265-6.265a1.527 1.527 0 0 1 2.156 0l6.723 6.722c.798.798 2.162.48 2.521-.593.53-1.585 1.402-2.935 1.985-3.52a3.043 3.043 0 0 1 4.308.001 3.044 3.044 0 0 1 0 4.31c-.584.583-1.933 1.452-3.519 1.983a1.525 1.525 0 0 0-.593 2.522l6.845 6.845c.595.595.595 1.56 0 2.154L36.467 28.6c-.535-1.01-1.161-1.91-1.78-2.528a6.088 6.088 0 0 0-8.617 0 6.087 6.087 0 0 0-.001 8.615z"/><path d="M9.952 20.725a1.523 1.523 0 1 0-2.154 2.155l4.767 4.765a1.523 1.523 0 1 0 2.154-2.155l-4.767-4.765zm33.351 33.35a1.524 1.524 0 0 0-2.152 2.158l4.897 4.887a1.523 1.523 0 1 0 2.152-2.157l-4.898-4.888z"/></g><defs><clipPath id="a"><path fill="#fff" d="M0 0h78v78H0z"/></clipPath></defs></svg>