<svg width="36" height="36" viewBox="0 0 36 36" fill="none" xmlns="http://www.w3.org/2000/svg"><g clip-path="url(#a)" fill="#316485"><path d="M18.92 11.24a.815.815 0 0 0 1.153 1.152l.672-.672a.814.814 0 0 0 .163-.92 6.994 6.994 0 0 1-.677-2.965c0-2.043.89-3.967 2.39-5.296l.002 5.332c0 .267.131.517.35.669l3.865 2.676a.815.815 0 0 0 .927 0l3.866-2.675a.814.814 0 0 0 .351-.67v-5.33a7.08 7.08 0 0 1 2.389 5.29 7.025 7.025 0 0 1-2.07 5 7.016 7.016 0 0 1-4.996 2.07H27.3c-.65 0-1.924-.315-2.36-.436a.815.815 0 0 0-.794.209L21.67 17.15a.815.815 0 0 0 1.151 1.152l2.147-2.146c.598.148 1.627.373 2.33.374h.007a8.636 8.636 0 0 0 6.147-2.547A8.645 8.645 0 0 0 36 7.831 8.721 8.721 0 0 0 31.567.255a.815.815 0 0 0-1.215.71l.001 6.48-3.051 2.11-3.05-2.112-.003-6.48a.815.815 0 0 0-1.215-.709 8.723 8.723 0 0 0-4.431 7.58c0 1.058.202 2.106.601 3.123l-.283.284zm-2.156 10.816L5.466 33.355a2.235 2.235 0 0 1-1.59.66 2.238 2.238 0 0 1-1.59-.66 2.233 2.233 0 0 1-.657-1.591c0-.6.234-1.163.66-1.586l9.718-9.72a.815.815 0 0 0-1.152-1.151l-9.717 9.718A3.845 3.845 0 0 0 0 31.762a3.852 3.852 0 0 0 1.134 2.745 3.851 3.851 0 0 0 2.741 1.136h.002a3.853 3.853 0 0 0 2.74-1.136l11.3-11.3a.814.814 0 0 0-1.153-1.151z"/><path d="M3.864 30.775a1.004 1.004 0 0 0-.71 1.71l.002.002a1.003 1.003 0 0 0 1.419-.002 1.003 1.003 0 0 0-.71-1.71h-.001zm26.629-4.129a.816.816 0 0 0-.299-.19l-2.335-.846-8.437-8.438 1.363-1.363a.815.815 0 0 0-.893-1.327L7.131 1.722A4.066 4.066 0 0 0 4.237.52h-.005a4.073 4.073 0 0 0-2.898 1.198 4.072 4.072 0 0 0-1.2 2.901c0 1.095.427 2.124 1.201 2.898l12.762 12.76a.815.815 0 0 0 1.326.894l1.364-1.364 8.437 8.437.847 2.336c.04.112.105.214.19.298l4.733 4.734a.812.812 0 0 0 1.152 0l3.08-3.08a.815.815 0 0 0 0-1.152l-4.733-4.734zm-12.8-10.05a.262.262 0 0 0-.005.006l-2.482 2.482-12.72-12.72a2.455 2.455 0 0 1-.724-1.746c0-.66.257-1.28.724-1.747a2.454 2.454 0 0 1 1.746-.722h.003c.659 0 1.278.257 1.743.724l12.72 12.719-.999 1-.005.005zm13.877 17.29l-4.03-4.03-.847-2.336a.813.813 0 0 0-.19-.298l-8.565-8.565.332-.332 8.565 8.566a.817.817 0 0 0 .298.19l2.336.846 4.03 4.03-1.929 1.929z"/><path d="M4.804 4.038a.815.815 0 0 0-1.152 1.151l11.236 11.236a.812.812 0 0 0 1.152 0 .814.814 0 0 0 0-1.152L4.804 4.038z"/></g><defs><clipPath id="a"><path fill="#fff" d="M0 0h36v36H0z"/></clipPath></defs></svg>