<svg width="44" height="43" viewBox="0 0 44 43" fill="none" xmlns="http://www.w3.org/2000/svg"><g clip-path="url(#a)" fill="#fff"><path d="M40.81 6.964a.709.709 0 0 0-.866-.504C27.852 9.645 23.007 1.688 22.394.566a.754.754 0 0 0-.08-.172.75.75 0 0 0-1.22 0 .732.732 0 0 0-.086.213c-.7 1.254-5.57 8.999-17.53 5.853a.709.709 0 0 0-.865.504c-.065.247-6.237 24.782 18.787 35.54a.71.71 0 0 0 .713-.04C47.031 31.688 40.875 7.212 40.81 6.965zm-19.1 34.128C.101 31.647 2.992 11.988 3.826 8.007c10.707 2.503 16.136-3.413 17.885-5.893 1.75 2.48 7.18 8.398 17.886 5.89.834 3.982 3.724 23.64-17.886 33.088z"/><path d="M38.278 9.94a.709.709 0 0 0-.533-.138 22.158 22.158 0 0 1-3.168.236.709.709 0 1 0 0 1.417 23.118 23.118 0 0 0 2.642-.156c.577 6.099-.155 19.362-15.508 26.68a34.307 34.307 0 0 1-4.209-2.367.709.709 0 1 0-.783 1.181 35.831 35.831 0 0 0 4.693 2.612.71.71 0 0 0 .598 0c17.12-7.975 17.27-22.929 16.54-28.987a.71.71 0 0 0-.272-.478zM6.68 19.808a29.68 29.68 0 0 1-.458-8.505c.87.101 1.746.152 2.623.154A18.126 18.126 0 0 0 21.71 6.464a17.607 17.607 0 0 0 6.888 4.092.709.709 0 1 0 .431-1.35 16.251 16.251 0 0 1-6.803-4.234.73.73 0 0 0-1.02 0A16.711 16.711 0 0 1 8.85 10.036a22.148 22.148 0 0 1-3.15-.234.709.709 0 0 0-.806.621 31.162 31.162 0 0 0 .404 9.669 25.356 25.356 0 0 0 6.25 12.34.709.709 0 0 0 1.04-.964 23.95 23.95 0 0 1-5.907-11.66zm.162 15.686H5.424v-1.417a.709.709 0 1 0-1.417 0v1.417H2.589a.709.709 0 1 0 0 1.417h1.418v1.418a.709.709 0 1 0 1.417 0V36.91h1.418a.709.709 0 1 0 0-1.417zm34.727 3.544H40.15V37.62a.709.709 0 1 0-1.417 0v1.418h-1.417a.709.709 0 0 0 0 1.417h1.417v1.417a.709.709 0 0 0 1.417 0v-1.417h1.418a.709.709 0 0 0 0-1.417zM35.9 2.893h.708v.709a.709.709 0 0 0 1.417 0v-.709h.709a.709.709 0 0 0 0-1.417h-.709v-.71a.709.709 0 1 0-1.417 0v.71h-.709a.709.709 0 1 0 0 1.417z"/><path d="M23.053 30.726h-1.635V19.89l-3.278 1.204v-1.476l4.658-1.75h.255v12.86z"/></g><defs><clipPath id="a"><path fill="#fff" transform="translate(.818 .058)" d="M0 0h42.523v42.523H0z"/></clipPath></defs></svg>