<svg width="34" height="34" viewBox="0 0 34 34" fill="none" xmlns="http://www.w3.org/2000/svg"><path d="M31.167 3.188h-4.605V1.062a1.062 1.062 0 1 0-2.125 0v2.125h-6.375V1.063a1.062 1.062 0 1 0-2.125 0v2.125H9.564V1.062a1.062 1.062 0 1 0-2.126 0v2.125H2.835A2.833 2.833 0 0 0 0 6.02v25.146A2.834 2.834 0 0 0 2.834 34h28.333A2.833 2.833 0 0 0 34 31.166V6.02a2.832 2.832 0 0 0-2.833-2.832zm.708 27.978a.709.709 0 0 1-.708.709H2.834a.71.71 0 0 1-.709-.709V6.02c0-.39.318-.707.709-.707h4.604v2.125a1.062 1.062 0 1 0 2.125 0V5.313h6.374v2.125a1.062 1.062 0 1 0 2.126 0V5.313h6.375v2.125a1.062 1.062 0 1 0 2.125 0V5.313h4.604c.39 0 .708.317.708.707v25.146z" fill="#C4C4C4"/><path d="M11.688 12.75h-4.25v3.188h4.25V12.75zm0 5.313h-4.25v3.187h4.25v-3.188zm0 5.312h-4.25v3.188h4.25v-3.188zm7.437 0h-4.25v3.188h4.25v-3.188zm0-5.312h-4.25v3.187h4.25v-3.188zm0-5.313h-4.25v3.188h4.25V12.75zm7.438 10.625h-4.25v3.188h4.25v-3.188zm0-5.312h-4.25v3.187h4.25v-3.188zm0-5.313h-4.25v3.188h4.25V12.75z" fill="#C4C4C4"/></svg>