<svg width="43" height="43" viewBox="0 0 43 43" fill="none" xmlns="http://www.w3.org/2000/svg"><g clip-path="url(#a)" fill="#fff"><path d="M11.812 5.068c-.423.243-.842.505-1.248.781a.708.708 0 1 0 .798 1.173c.375-.255.764-.499 1.155-.723a.71.71 0 0 0-.705-1.23zm18.87.72a.709.709 0 0 0 .212.98c.382.245.758.508 1.118.78a.706.706 0 0 0 .993-.137.709.709 0 0 0-.138-.992 19.5 19.5 0 0 0-1.205-.843.708.708 0 0 0-.98.212zM40.4 20.206a.708.708 0 1 0-1.413.106c.016.216.016.435.025.653h-2.1v5.67h5.67v-5.67h-2.154c-.009-.253-.009-.508-.028-.76zm.764 5.012h-2.835v-2.835h2.835v2.835zM3.398 14.954c-.171.457-.327.927-.463 1.397a.708.708 0 1 0 1.361.394c.127-.436.27-.871.43-1.293a.708.708 0 1 0-1.328-.498zm35.273.466a.71.71 0 0 0-.46.89c.136.427.257.869.361 1.312a.709.709 0 0 0 1.38-.323 18.66 18.66 0 0 0-.39-1.42.711.711 0 0 0-.89-.46zm-3.603-7.052a.708.708 0 1 0-1.017.986c.313.325.62.666.909 1.014a.707.707 0 0 0 .998.093.71.71 0 0 0 .093-.998 19.06 19.06 0 0 0-.983-1.095zm-25.833.353a.709.709 0 1 0-.968-1.037c-.357.333-.706.685-1.037 1.045a.708.708 0 1 0 1.044.96c.307-.334.63-.66.96-.968zm28.588 5.457a.709.709 0 0 0 .634-1.025 19.22 19.22 0 0 0-.708-1.292.709.709 0 0 0-1.216.73c.232.385.452.787.654 1.194a.71.71 0 0 0 .636.393zM3.625 20.767c.023-.454.063-.91.12-1.358a.709.709 0 0 0-1.406-.178c-.061.482-.105.974-.13 1.464a.7.7 0 0 0 .04.27H.06v5.67h5.669v-5.67H3.575a.686.686 0 0 0 .05-.198zm.686 4.451H1.476v-2.835H4.31v2.835zm1.102-14.18c-.272.405-.532.827-.772 1.253a.708.708 0 1 0 1.235.696c.221-.394.462-.784.714-1.16a.71.71 0 0 0-1.177-.79z"/><path d="M2.893 6.083a2.832 2.832 0 0 0 2.734-2.126h8.606a.708.708 0 0 0 .744 1.173c.424-.162.857-.31 1.29-.438a.698.698 0 0 0 .49-.735h1.641c.031.024.053.06.087.078v2.048h5.67v-1.89c.15.024.302.045.452.073a.702.702 0 0 0 .72-.31h1.543c-.021.038-.051.07-.066.111a.708.708 0 0 0 .43.905c.429.152.854.322 1.266.504a.71.71 0 0 0 .575-1.296c-.183-.08-.375-.147-.562-.223h8.5a2.832 2.832 0 0 0 2.734 2.126 2.838 2.838 0 0 0 2.835-2.835A2.838 2.838 0 0 0 39.747.413a2.832 2.832 0 0 0-2.734 2.126H24.155V.413h-5.67V2.54H5.627A2.832 2.832 0 0 0 2.893.413 2.838 2.838 0 0 0 .058 3.248a2.838 2.838 0 0 0 2.835 2.835zM39.746 1.83c.782 0 1.418.635 1.418 1.417s-.636 1.417-1.418 1.417a1.419 1.419 0 0 1-1.417-1.417c0-.782.636-1.417 1.417-1.417zm-19.844 0h2.835v2.834h-2.835V1.831zm-17.009 0c.782 0 1.418.635 1.418 1.417s-.636 1.417-1.418 1.417a1.419 1.419 0 0 1-1.417-1.417c0-.782.635-1.417 1.417-1.417zM22.029 7.5a.709.709 0 0 0-1.418 0v.497L7.961 27.345h3.61a4.084 4.084 0 0 1 4.078 4.08v7.26h1.418v3.543h8.504v-3.543h1.418v-7.261a4.084 4.084 0 0 1 4.08-4.079h3.609L22.028 7.997V7.5zm-.71 17.01a1.418 1.418 0 0 1 .001 2.834 1.419 1.419 0 0 1-1.418-1.417 1.42 1.42 0 0 1 1.418-1.418zm2.836 16.3h-5.67v-2.126h5.67v2.126zm1.417-3.544h-8.505V35.14h8.505v2.126zm5.497-11.34a5.503 5.503 0 0 0-5.497 5.498v2.299h-8.505v-2.3a5.503 5.503 0 0 0-5.496-5.496h-.989l10.03-15.34v12.605a2.833 2.833 0 0 0-2.127 2.735 2.838 2.838 0 0 0 2.835 2.835 2.838 2.838 0 0 0 2.835-2.835 2.833 2.833 0 0 0-2.127-2.735V10.588l10.03 15.339h-.989z"/></g><defs><clipPath id="a"><path fill="#fff" transform="translate(.058 .058)" d="M0 0h42.523v42.523H0z"/></clipPath></defs></svg>