<svg width="42" height="42" viewBox="0 0 42 42" fill="none" xmlns="http://www.w3.org/2000/svg"><path d="M39.389 20.273a8.412 8.412 0 0 1-7.014-3.754l-.563-.843-.562.843a8.412 8.412 0 0 1-7.014 3.754h-2.56V31.11a8.8 8.8 0 0 0 3.15 6.733H10.863V35.14h8.785V22.976H5.458v5.407H1.402V1.352h29.734v12.163h1.351V0H.051v29.338l9.857 9.857h16.995L31.813 42l5.71-3.263a8.804 8.804 0 0 0 4.426-7.627V20.273h-2.56zM9.512 36.888l-7.154-7.154h7.154v7.154zm-2.703-8.505v-4.055h11.488v9.46h-7.434v-5.405H6.81zm33.788 2.727a7.45 7.45 0 0 1-3.745 6.454l-5.04 2.88-5.04-2.88a7.45 7.45 0 0 1-3.745-6.454v-9.485h1.21a9.76 9.76 0 0 0 7.575-3.594 9.76 9.76 0 0 0 7.576 3.594h1.21v9.485z" fill="#316485"/><path d="M37.894 27.03v4.08a4.742 4.742 0 0 1-2.383 4.107l.67 1.173a6.095 6.095 0 0 0 3.065-5.28v-4.08h-1.352zM4.106 2.703v4.055h24.327V2.703H4.106zm22.976 2.703H5.457V4.055h21.625v1.351zm10.335 17.768l-8.984 8.983-2.225-2.225-.955.956 3.18 3.18 9.94-9.938-.956-.956zM16.945 25.68H8.16v1.35h8.785v-1.35zm0 2.702h-4.73v1.352h4.73v-1.352zm0 2.703h-4.73v1.352h4.73v-1.352zM25.73 9.46H4.106v1.352H25.73v-1.35zm0 2.704H4.106v1.352H25.73v-1.352zm0 2.703H4.106v1.352H25.73v-1.352zm-8.785 2.703H4.105v1.352h12.84V17.57zm0 2.703H4.105v1.352h12.84v-1.352zM28.433 9.46h-1.351v1.352h1.351v-1.35zm0 2.704h-1.351v1.352h1.351v-1.352zm0 2.703h-1.351v1.352h1.351v-1.352zm-8.785 2.703h-1.351v1.352h1.351V17.57zm0 2.703h-1.351v1.352h1.351v-1.352z" fill="#316485"/></svg>